<svg xmlns="http://www.w3.org/2000/svg" width="59" height="54" viewBox="0 0 59 54"><defs><style>.cls-1 { fill: #7c0a47; fill-rule: evenodd; }</style></defs><path id="Forma_1" data-name="Forma 1" class="cls-1" d="M14.64 15.04a4.55 4.55 0 0 0 1.326 3.23.987.987 0 0 0 1.39-1.4 2.6 2.6 0 0 1 0-3.66 4.595 4.595 0 0 0 0-6.46.973.973 0 0 0-1.39 0 1 1 0 0 0 0 1.4 2.6 2.6 0 0 1 0 3.66 4.555 4.555 0 0 0-1.327 3.23zm21.632 0a4.548 4.548 0 0 0 1.328 3.23.986.986 0 0 0 1.39-1.4 2.605 2.605 0 0 1 0-3.66 4.592 4.592 0 0 0 0-6.46.972.972 0 0 0-1.39 0 .993.993 0 0 0 0 1.4 2.606 2.606 0 0 1 0 3.66 4.55 4.55 0 0 0-1.328 3.23zm-11.237-3.85a5.772 5.772 0 0 0 1.686 4.1.956.956 0 0 0 1.392 0 1 1 0 0 0 0-1.4 3.84 3.84 0 0 1 0-5.4 5.838 5.838 0 0 0 0-8.21.972.972 0 0 0-1.39 0 1 1 0 0 0 0 1.4 3.84 3.84 0 0 1 0 5.4 5.81 5.81 0 0 0-1.687 4.11zm21.13 27.48c.018 0 .033.01.052.01C53.504 38.68 59 33.57 59 26.78a.985.985 0 0 0-.983-.99h-8.894c.028-.66.044-1.32.044-1.99a.985.985 0 0 0-.984-.99h-26.55v-.99a.983.983 0 1 0-1.966 0v.99H6.883a.984.984 0 0 0-.983.99c0 9.63 2.894 17.25 8.212 21.83H.982a.984.984 0 0 0-.982.99c0 1.51 7.046 4.13 7.117 4.16a60.267 60.267 0 0 0 20.416 3.21c18.274 0 26.788-6.31 27.142-6.57a1 1 0 0 0 .34-1.11.978.978 0 0 0-.93-.68h-13.13a21.09 21.09 0 0 0 5.21-6.96zm10.822-10.9c-.47 4.99-4.47 8.57-9.953 8.9a33.566 33.566 0 0 0 1.96-8.9h7.993zM27.533 52.01c-11.625 0-19.08-2.59-22.87-4.4H50.3c-3.9 1.83-11.395 4.4-22.767 4.4zm-10.108-6.38C11.46 41.88 8.09 34.51 7.877 24.79h11.79v1.99H17.7a.984.984 0 0 0-.983.99v7.44a.984.984 0 0 0 .983.99h5.9a.984.984 0 0 0 .983-.99v-7.44a.984.984 0 0 0-.983-.99h-1.967v-1.99H47.19c-.214 9.72-3.583 17.09-9.548 20.84H17.425zm5.192-16.87v5.46h-3.934v-5.46h3.934z"/></svg>