<svg xmlns="http://www.w3.org/2000/svg" width="59" height="21" viewBox="0 0 59 21"><defs><style>.cls-1 { fill: #757530; fill-rule: evenodd; }</style></defs><path id="Forma_1" data-name="Forma 1" class="cls-1" d="M57.513 8.97h-4.56a10.11 10.11 0 0 0-19.934-.96l-2.77-1.67a1.443 1.443 0 0 0-1.5 0l-2.77 1.67a10.11 10.11 0 0 0-19.934.96h-4.56a1.53 1.53 0 0 0 0 3.06h4.56a10.136 10.136 0 0 0 20.19-.62L29.5 9.44l3.262 1.97a10.136 10.136 0 0 0 20.19.62h4.56a1.53 1.53 0 0 0 0-3.06zm-41.41 8.96a7.434 7.434 0 1 1 7.206-7.43 7.327 7.327 0 0 1-7.21 7.43zm26.793 0A7.434 7.434 0 1 1 50.1 10.5a7.326 7.326 0 0 1-7.2 7.43z"/></svg>