<svg xmlns="http://www.w3.org/2000/svg" width="50" height="49" viewBox="0 0 50 49"><defs><style>.cls-1 { fill: #8b8b8b; fill-rule: evenodd; }</style></defs><path id="Forma_1" data-name="Forma 1" class="cls-1" d="M47.316 33.28a9.116 9.116 0 0 0-6.483-2.7 9.336 9.336 0 0 0-2.57.36l-4.908-4.9c-.07-.07-.138-.13-.21-.2l9.267-9.26a3.718 3.718 0 0 0-5.267-5.25l-7.66 7.65c-.03-.03-.062-.07-.1-.1l-.946-.95A14.447 14.447 0 0 0 4.21 4.23 14.43 14.43 0 0 0 14.42 28.87a14.768 14.768 0 0 0 3.507-.43l.944.94a1.05 1.05 0 0 0 .1.1l-7.66 7.65a3.72 3.72 0 1 0 5.26 5.26l9.847-9.83c.063.07.128.14.193.2l5.168 5.17a9.29 9.29 0 0 0 2.5 8.37 9.213 9.213 0 0 0 13.038-13.02zm-6.514 14.21a7.673 7.673 0 0 1-5.454-2.25 7.75 7.75 0 0 1-2.01-7.37l.105-.41-5.76-5.76a3.31 3.31 0 0 1-.516-.67l-.49-.85-11.162 11.15a2.264 2.264 0 0 1-3.134 0 2.218 2.218 0 0 1-.65-1.57 2.177 2.177 0 0 1 .65-1.56l8.9-8.9-.765-.51a3.147 3.147 0 0 1-.578-.47l-4.333-4.33a3.7 3.7 0 0 1 0-5.23l3.15-3.15a3.716 3.716 0 0 1 5.237 0l4.337 4.33a4.047 4.047 0 0 1 .47.58l.51.76 8.9-8.89a2.276 2.276 0 0 1 3.135 0 2.19 2.19 0 0 1 .648 1.57 2.16 2.16 0 0 1-.65 1.56L30.757 26.1l.85.49a3.11 3.11 0 0 1 .68.51l5.563 5.56.442-.16a8.142 8.142 0 0 1 2.533-.42 7.705 7.705 0 0 1-.025 15.41zM14.434 1.29A13.142 13.142 0 0 1 27.37 16.86l-1.418-1.41a11.576 11.576 0 1 0-10.513 10.5l1.41 1.41A13.13 13.13 0 0 1 1.273 14.44 13.146 13.146 0 0 1 14.434 1.29zM7.157 7.17a10.28 10.28 0 0 1 17.556 7.06 5.234 5.234 0 0 0-7.023.32l-3.15 3.15a5.2 5.2 0 0 0-.308 7.02A10.285 10.285 0 0 1 7.157 7.17z"/></svg>