<svg xmlns="http://www.w3.org/2000/svg" width="29.969" height="63" viewBox="0 0 29.969 63"><defs><style>.cls-1 { fill: #fff; fill-rule: evenodd; }</style></defs><path id="Forma_1" data-name="Forma 1" class="cls-1" d="M24.606.43a7.94 7.94 0 0 0-10.08 5.02L.046 48.55c-.007.02-.006.04-.01.06s-.013.05-.018.08a.877.877 0 0 0 0 .24c0 .03 0 .05.006.07s0 .02 0 .03l3 13.29a1.052 1.052 0 0 0 .06.17c0 .01.008.02.013.03a.882.882 0 0 0 .18.24c.018.01.034.03.052.04a.74.74 0 0 0 .27.16.82.82 0 0 0 .345.05.93.93 0 0 0 .33-.09 1.1 1.1 0 0 0 .172-.11l10.38-8.69c.018-.02.03-.04.048-.06a.365.365 0 0 0 .064-.07.668.668 0 0 0 .11-.18.377.377 0 0 0 .036-.07c0-.01.01-.01.012-.02l14.48-43.1A8.06 8.06 0 0 0 24.607.43zm-.568 1.69a6.26 6.26 0 0 1 4.082 7.06L16.55 5.2a6.16 6.16 0 0 1 7.488-3.08zm1.877 13.84l-11.7-4.02.568-1.69 11.7 4.02zM5.47 57.38a.877.877 0 0 0-1.12.56l-.3.9-2.165-9.59 3.31-2.14 1.55 4.33c.01.03.036.05.05.08s.017.06.035.09a.278.278 0 0 0 .058.06.76.76 0 0 0 .1.12.9.9 0 0 0 .146.1.673.673 0 0 0 .13.07 1.067 1.067 0 0 0 .175.04.342.342 0 0 0 .14.01 1.2 1.2 0 0 0 .19-.02c.035-.01.068-.01.1-.02a.335.335 0 0 0 .09-.04.333.333 0 0 0 .084-.05l3.834-2.47 1.337 3.73-7.5 6.28.3-.91a.9.9 0 0 0-.545-1.13zm7.8-9.34l8.985-26.74a.89.89 0 0 0-.552-1.13.878.878 0 0 0-1.12.56l-8.985 26.74-3.573 2.31-1.443-4.03L15.57 19a.9.9 0 0 0-.553-1.13.878.878 0 0 0-1.12.56L4.91 45.17l-2.382 1.54 11.115-33.08 11.7 4.02-11.115 33.08zm13.78-35.46l-11.7-4.02.57-1.69 11.7 4.02z"/></svg>