<svg xmlns="http://www.w3.org/2000/svg" width="53" height="46" viewBox="0 0 53 46"><defs><style>.cls-1 { fill: #76472d; fill-rule: evenodd; }</style></defs><path id="Forma_1" data-name="Forma 1" class="cls-1" d="M53 9.86a4.924 4.924 0 0 0-3.853-4.81L27.595.12a5.067 5.067 0 0 0-1.1-.12 5.442 5.442 0 0 0-1.118.12L3.847 5.05a4.923 4.923 0 0 0 0 9.61l4.43 1.01v13.9c0 4.36 5.033 8.22 18.22 8.22s18.22-3.86 18.22-8.22v-13.9l4.427-1.01A4.913 4.913 0 0 0 53 9.86zM41.406 29.57c0 1.82-4.97 4.93-14.906 4.93s-14.906-3.11-14.906-4.93V16.43l13.81 3.16a5.092 5.092 0 0 0 1.1.12 5.4 5.4 0 0 0 1.115-.12l13.79-3.16v13.14zM26.873 16.39l-.373.04-.373-.04-21.53-4.93a1.64 1.64 0 0 1 0-3.2l21.53-4.93.373-.04.373.04 21.53 4.93a1.64 1.64 0 0 1 0 3.2zm21.158 1.68v14.79a1.657 1.657 0 0 0 3.314 0V18.07a1.657 1.657 0 0 0-3.313 0zm1.657 18.07c-1.83 0-3.312 4.76-3.312 6.57a3.313 3.313 0 0 0 6.625 0c0-1.81-1.485-6.57-3.313-6.57z"/></svg>