<svg xmlns="http://www.w3.org/2000/svg" width="51" height="61" viewBox="0 0 51 61"><defs><style>.cls-1 { fill: #395f4a; fill-rule: evenodd; }</style></defs><path class="cls-1" d="M38.793 34.64H12.207a3 3 0 0 0-3 2.99v16.3a3 3 0 0 0 3 2.99h26.586a3 3 0 0 0 3-2.99v-16.3a3 3 0 0 0-3-2.99zm1.087 19.29a1.082 1.082 0 0 1-1.087 1.08H12.207a1.082 1.082 0 0 1-1.087-1.08v-16.3a1.082 1.082 0 0 1 1.087-1.08h26.586a1.082 1.082 0 0 1 1.087 1.08v16.3zm-3.132-13.18h-22.5a.955.955 0 1 0 0 1.91h16.425v1.31a3 3 0 1 0 1.917 0v-1.31h4.154a.955.955 0 1 0 .004-1.91zm-4.026 6.05a1.087 1.087 0 1 1-1.087-1.08 1.082 1.082 0 0 1 1.087 1.08zM48 34.64h-1.09V19.29a13.138 13.138 0 0 0-1.024-5.07V1.97A1.98 1.98 0 0 0 43.906 0h-4.09a1.98 1.98 0 0 0-1.982 1.97v4.14h-4.218v-2.1A4.024 4.024 0 0 0 29.59 0h-8.18a4.024 4.024 0 0 0-4.028 4.01v2.1h-4.218V1.97A1.98 1.98 0 0 0 11.184 0h-4.09A1.98 1.98 0 0 0 5.11 1.97v12.25a13.138 13.138 0 0 0-1.024 5.07v15.35H3a3 3 0 0 0-3 2.99v16.3a3 3 0 0 0 3 2.99h1.178A5.056 5.056 0 0 0 9.135 61h32.722a5.054 5.054 0 0 0 4.956-4.08H48a3 3 0 0 0 3-2.99v-16.3a3 3 0 0 0-3-2.99zM4.094 55.01H3a1.08 1.08 0 0 1-1.087-1.08V42.66h2.173v12.35zm0-14.26H1.92v-3.12a1.082 1.082 0 0 1 1.088-1.08h1.086v4.2zM39.756 1.97a.064.064 0 0 1 .064-.06h4.09a.064.064 0 0 1 .064.06v9.05a13.27 13.27 0 0 0-3.39-2.97 3.024 3.024 0 0 0-.828-1.19V1.97zm-20.45 2.04a2.106 2.106 0 0 1 2.108-2.1h8.18a2.106 2.106 0 0 1 2.11 2.1v2.1H19.3v-2.1zm-7.16 5.1a1.09 1.09 0 0 1 1.087-1.09h24.542a1.09 1.09 0 0 1 1.086 1.09v10.18a9.267 9.267 0 0 1-9.266 9.24H28.5v-3.12a.96.96 0 0 0-.96-.96h-4.09a.96.96 0 0 0-.958.96v3.12H21.41a9.267 9.267 0 0 1-9.267-9.24V9.11zM26.59 26.36v3.12a1.087 1.087 0 0 1-2.173 0v-3.12h2.173zM7.034 1.97a.064.064 0 0 1 .064-.06h4.09a.064.064 0 0 1 .064.06v4.89a3.024 3.024 0 0 0-.828 1.19 13.27 13.27 0 0 0-3.39 2.97V1.97zm37.962 54a3.13 3.13 0 0 1-3.13 3.12H9.138a3.13 3.13 0 0 1-3.133-3.12V19.29a11.293 11.293 0 0 1 4.22-8.77v8.77A11.178 11.178 0 0 0 21.41 30.44h1.244a3.01 3.01 0 0 0 5.692 0h1.244a11.18 11.18 0 0 0 11.185-11.15v-8.77a11.294 11.294 0 0 1 4.217 8.77v36.68zm4.09-2.04A1.082 1.082 0 0 1 48 55.01h-1.09V42.66h2.173v11.27zm0-13.18H46.91v-4.2H48a1.082 1.082 0 0 1 1.087 1.08v3.12z"/></svg>