<svg xmlns="http://www.w3.org/2000/svg" width="58" height="58" viewBox="0 0 58 58"><defs><style>.cls-1 { fill: #587077; fill-rule: evenodd; }</style></defs><path class="cls-1" d="M32.97 27.51a.985.985 0 0 0 1.3.42 83.214 83.214 0 0 1 8.554-3.81.965.965 0 1 0-.584-1.84 80.188 80.188 0 0 0-8.847 3.93.966.966 0 0 0-.422 1.3zm.864-11.08a.977.977 0 0 0 .438-.1 83.214 83.214 0 0 1 8.553-3.81.965.965 0 1 0-.584-1.84 80.188 80.188 0 0 0-8.846 3.93.96.96 0 0 0 .44 1.82zm23.2-1.93a.965.965 0 0 0-.966.97v37.7a2.9 2.9 0 0 1-2.9 2.9h-23.2v-2.23a28.585 28.585 0 0 1 8.7-1.64 49.924 49.924 0 0 1 14.195 1.88.963.963 0 0 0 1.27-.91V10.63a.966.966 0 0 0-.756-.94s-.758-.17-2.053-.41a.97.97 0 0 0-1.125.78.96.96 0 0 0 .774 1.12c.494.1.908.18 1.227.24v40.46a54.883 54.883 0 0 0-13.532-1.61 30.358 30.358 0 0 0-9.63 1.85 22.7 22.7 0 0 0-8.737-1.85 65.1 65.1 0 0 0-14.5 1.65V11.38a64 64 0 0 1 14.5-1.71 20.888 20.888 0 0 1 7.734 1.59V49.3a.97.97 0 0 0 1.465.83c.1-.06 9.672-5.78 18.173-8.61a.974.974 0 0 0 .66-.92V.97a.967.967 0 0 0-1.306-.91A102.51 102.51 0 0 0 31.39 7.88a.967.967 0 0 0 1.023 1.64A102.96 102.96 0 0 1 46.4 2.38v37.53a107.727 107.727 0 0 0-16.433 7.71V10.63a.96.96 0 0 0-.534-.86A22.382 22.382 0 0 0 20.3 7.73 62.837 62.837 0 0 0 4.57 9.7a.97.97 0 0 0-.7.93v42.54a.97.97 0 0 0 .384.77.95.95 0 0 0 .583.19 1.183 1.183 0 0 0 .265-.03 61.873 61.873 0 0 1 15.2-1.9 21.01 21.01 0 0 1 7.733 1.59v2.28h-23.2a2.9 2.9 0 0 1-2.9-2.9v-37.7a.967.967 0 1 0-1.933 0v37.7A4.84 4.84 0 0 0 4.833 58h48.334A4.84 4.84 0 0 0 58 53.17v-37.7a.965.965 0 0 0-.967-.97zm-24.062 7.21a.985.985 0 0 0 1.3.42 83.214 83.214 0 0 1 8.553-3.81.965.965 0 1 0-.584-1.84 80.188 80.188 0 0 0-8.846 3.93.966.966 0 0 0-.423 1.3zm0 11.6a.985.985 0 0 0 1.3.42 83.214 83.214 0 0 1 8.553-3.81.965.965 0 1 0-.584-1.84 80.188 80.188 0 0 0-8.846 3.93.966.966 0 0 0-.423 1.3zm-9.55-15.37c-5.97-1.4-12.753.38-13.038.46a.967.967 0 0 0 .25 1.9 1.09 1.09 0 0 0 .25-.03c.066-.02 6.596-1.74 12.1-.45a.965.965 0 1 0 .436-1.88zm0 5.8c-5.97-1.4-12.753.38-13.038.46a.967.967 0 0 0 .25 1.9 1.09 1.09 0 0 0 .25-.03c.066-.02 6.596-1.74 12.1-.45a.965.965 0 1 0 .436-1.88zm9.55 15.37a.985.985 0 0 0 1.3.42 83.214 83.214 0 0 1 8.553-3.81.965.965 0 1 0-.584-1.84 80.188 80.188 0 0 0-8.846 3.93.966.966 0 0 0-.423 1.3zm-9.55-9.57c-5.97-1.4-12.753.38-13.038.46a.967.967 0 0 0 .25 1.9 1.09 1.09 0 0 0 .25-.03c.066-.02 6.596-1.74 12.1-.45a.965.965 0 1 0 .436-1.88zm0 11.6c-5.97-1.4-12.753.38-13.038.46a.967.967 0 0 0 .25 1.9 1.09 1.09 0 0 0 .25-.03c.066-.02 6.596-1.74 12.1-.45a.965.965 0 1 0 .436-1.88zm0-5.8c-5.97-1.4-12.753.38-13.038.46a.967.967 0 0 0 .25 1.9 1.09 1.09 0 0 0 .25-.03c.066-.02 6.596-1.74 12.1-.45a.965.965 0 1 0 .436-1.88z"/></svg>